<?xml version="1.0" standalone="no"?>
<!DOCTYPE svg PUBLIC "-//W3C//DTD SVG 20010904//EN"
 "http://www.w3.org/TR/2001/REC-SVG-20010904/DTD/svg10.dtd">
<svg version="1.0" xmlns="http://www.w3.org/2000/svg"
 width="500.000000pt" height="500.000000pt" viewBox="0 0 500.000000 500.000000"
 preserveAspectRatio="xMidYMid meet">
<metadata>
Created by potrace 1.14, written by Peter Selinger 2001-2017
</metadata>
<g transform="translate(0.000000,500.000000) scale(0.100000,-0.100000)"
fill="#000000" stroke="none">
<path d="M1391 3567 c-46 -16 -76 -58 -75 -105 0 -22 80 -257 193 -570 186
-515 192 -534 177 -557 -16 -25 -19 -25 -160 -25 -124 0 -145 2 -158 18 -9 9
-50 123 -93 252 -89 268 -103 290 -181 290 -85 0 -79 12 -344 -675 -166 -428
-240 -631 -240 -658 0 -31 7 -46 34 -73 l34 -34 229 0 c287 0 265 -13 342 196
45 119 61 151 81 161 35 18 615 18 649 0 18 -9 36 -46 77 -157 40 -107 62
-152 84 -173 l30 -27 236 0 236 0 34 34 c27 27 34 42 34 72 0 27 -115 335
-371 999 -204 528 -378 972 -385 987 -8 15 -24 33 -37 40 -31 18 -379 22 -426
5z m392 -69 c19 -15 759 -1921 759 -1957 1 -48 -20 -52 -239 -49 -187 3 -204
4 -221 23 -11 11 -36 67 -57 125 -56 154 -74 189 -106 205 -42 22 -687 22
-729 0 -36 -18 -49 -43 -99 -183 -55 -153 -59 -159 -93 -166 -17 -3 -111 -6
-209 -6 -167 0 -180 1 -200 21 -14 14 -18 27 -13 42 10 33 465 1210 475 1228
13 24 46 29 69 11 12 -11 48 -104 96 -247 43 -126 84 -241 93 -254 26 -41 69
-51 216 -51 149 0 190 10 218 53 9 15 17 43 17 64 0 25 -69 229 -190 566 -104
290 -190 533 -190 539 0 6 7 20 17 30 14 16 34 18 193 18 125 0 181 -4 193
-12z"/>
<path d="M2300 3569 c0 -24 62 -137 106 -192 52 -67 143 -138 230 -179 110
-52 165 -58 544 -58 452 0 617 -19 855 -97 162 -53 269 -117 388 -232 91 -88
89 -93 26 103 -22 66 -55 147 -74 181 -93 166 -229 294 -400 376 -121 58 -231
86 -390 99 -177 14 -1285 13 -1285 -1z"/>
<path d="M3961 2915 c197 -314 113 -773 -169 -923 -112 -60 -154 -67 -402 -67
l-225 0 -5 145 c-5 130 -8 151 -32 203 -61 131 -193 224 -333 234 l-75 6 0
-517 0 -517 483 3 482 4 99 27 c278 75 479 236 601 482 118 237 139 453 59
621 -70 147 -213 259 -432 338 -40 14 -77 26 -82 26 -5 0 9 -29 31 -65z"/>
</g>
</svg>
